<mxfile host="app.diagrams.net" modified="2022-03-02T11:46:37.350Z" agent="5.0 (X11; Linux x86_64) AppleWebKit/537.36 (KHTML, like Gecko) Chrome/98.0.4758.102 Safari/537.36" etag="kd56oaOsV_1LrYKPL4UT" version="16.6.4" type="github">
  <diagram id="C5RBs43oDa-KdzZeNtuy" name="Page-1">
    <mxGraphModel dx="981" dy="528" grid="1" gridSize="10" guides="1" tooltips="1" connect="1" arrows="1" fold="1" page="1" pageScale="1" pageWidth="827" pageHeight="1169" math="0" shadow="0">
      <root>
        <mxCell id="WIyWlLk6GJQsqaUBKTNV-0" />
        <mxCell id="WIyWlLk6GJQsqaUBKTNV-1" parent="WIyWlLk6GJQsqaUBKTNV-0" />
        <mxCell id="v3uT7TUWIVRwBluRIR1n-21" value="" style="group" vertex="1" connectable="0" parent="WIyWlLk6GJQsqaUBKTNV-1">
          <mxGeometry x="50" y="175" width="500" height="285" as="geometry" />
        </mxCell>
        <mxCell id="v3uT7TUWIVRwBluRIR1n-13" value="" style="rounded=0;whiteSpace=wrap;html=1;dashed=1;" vertex="1" parent="v3uT7TUWIVRwBluRIR1n-21">
          <mxGeometry x="120" y="175" width="300" height="110" as="geometry" />
        </mxCell>
        <mxCell id="v3uT7TUWIVRwBluRIR1n-5" value="" style="rounded=0;whiteSpace=wrap;html=1;dashed=1;" vertex="1" parent="v3uT7TUWIVRwBluRIR1n-21">
          <mxGeometry x="120" width="300" height="110" as="geometry" />
        </mxCell>
        <mxCell id="v3uT7TUWIVRwBluRIR1n-1" value="License Owner" style="shape=umlActor;verticalLabelPosition=bottom;verticalAlign=top;html=1;outlineConnect=0;" vertex="1" parent="v3uT7TUWIVRwBluRIR1n-21">
          <mxGeometry y="25" width="30" height="60" as="geometry" />
        </mxCell>
        <mxCell id="v3uT7TUWIVRwBluRIR1n-4" value="log in to service" style="rounded=1;whiteSpace=wrap;html=1;" vertex="1" parent="v3uT7TUWIVRwBluRIR1n-21">
          <mxGeometry x="130" y="35" width="120" height="40" as="geometry" />
        </mxCell>
        <mxCell id="v3uT7TUWIVRwBluRIR1n-3" style="edgeStyle=orthogonalEdgeStyle;rounded=0;orthogonalLoop=1;jettySize=auto;html=1;entryX=0;entryY=0.5;entryDx=0;entryDy=0;" edge="1" parent="v3uT7TUWIVRwBluRIR1n-21" source="v3uT7TUWIVRwBluRIR1n-1" target="v3uT7TUWIVRwBluRIR1n-4">
          <mxGeometry relative="1" as="geometry">
            <mxPoint x="110" y="55" as="targetPoint" />
          </mxGeometry>
        </mxCell>
        <mxCell id="v3uT7TUWIVRwBluRIR1n-6" value="service provider" style="text;html=1;strokeColor=none;fillColor=none;align=center;verticalAlign=middle;whiteSpace=wrap;rounded=0;dashed=1;" vertex="1" parent="v3uT7TUWIVRwBluRIR1n-21">
          <mxGeometry x="200" width="140" height="15" as="geometry" />
        </mxCell>
        <mxCell id="v3uT7TUWIVRwBluRIR1n-11" value="fill in license credential" style="rounded=1;whiteSpace=wrap;html=1;" vertex="1" parent="v3uT7TUWIVRwBluRIR1n-21">
          <mxGeometry x="290" y="35" width="120" height="40" as="geometry" />
        </mxCell>
        <mxCell id="v3uT7TUWIVRwBluRIR1n-7" style="edgeStyle=orthogonalEdgeStyle;rounded=0;orthogonalLoop=1;jettySize=auto;html=1;entryX=0;entryY=0.5;entryDx=0;entryDy=0;" edge="1" parent="v3uT7TUWIVRwBluRIR1n-21" source="v3uT7TUWIVRwBluRIR1n-4" target="v3uT7TUWIVRwBluRIR1n-11">
          <mxGeometry relative="1" as="geometry">
            <mxPoint x="340" y="55" as="targetPoint" />
          </mxGeometry>
        </mxCell>
        <mxCell id="v3uT7TUWIVRwBluRIR1n-12" value="does the user own the license" style="rounded=1;whiteSpace=wrap;html=1;" vertex="1" parent="v3uT7TUWIVRwBluRIR1n-21">
          <mxGeometry x="205" y="225" width="120" height="40" as="geometry" />
        </mxCell>
        <mxCell id="v3uT7TUWIVRwBluRIR1n-19" style="edgeStyle=orthogonalEdgeStyle;rounded=0;orthogonalLoop=1;jettySize=auto;html=1;exitX=0;exitY=0.5;exitDx=0;exitDy=0;" edge="1" parent="v3uT7TUWIVRwBluRIR1n-21" source="v3uT7TUWIVRwBluRIR1n-12" target="v3uT7TUWIVRwBluRIR1n-4">
          <mxGeometry relative="1" as="geometry">
            <Array as="points">
              <mxPoint x="90" y="245" />
              <mxPoint x="90" y="125" />
              <mxPoint x="190" y="125" />
            </Array>
          </mxGeometry>
        </mxCell>
        <mxCell id="v3uT7TUWIVRwBluRIR1n-14" style="edgeStyle=orthogonalEdgeStyle;rounded=0;orthogonalLoop=1;jettySize=auto;html=1;entryX=1;entryY=0.5;entryDx=0;entryDy=0;" edge="1" parent="v3uT7TUWIVRwBluRIR1n-21" source="v3uT7TUWIVRwBluRIR1n-11" target="v3uT7TUWIVRwBluRIR1n-12">
          <mxGeometry relative="1" as="geometry">
            <Array as="points">
              <mxPoint x="500" y="55" />
              <mxPoint x="500" y="245" />
              <mxPoint x="400" y="245" />
            </Array>
          </mxGeometry>
        </mxCell>
        <mxCell id="v3uT7TUWIVRwBluRIR1n-17" value="SAML request" style="edgeLabel;html=1;align=center;verticalAlign=middle;resizable=0;points=[];" vertex="1" connectable="0" parent="v3uT7TUWIVRwBluRIR1n-14">
          <mxGeometry x="0.0468" y="3" relative="1" as="geometry">
            <mxPoint y="-48" as="offset" />
          </mxGeometry>
        </mxCell>
        <mxCell id="v3uT7TUWIVRwBluRIR1n-15" value="Heirloom Identity Provider" style="text;html=1;strokeColor=none;fillColor=none;align=center;verticalAlign=middle;whiteSpace=wrap;rounded=0;dashed=1;" vertex="1" parent="v3uT7TUWIVRwBluRIR1n-21">
          <mxGeometry x="180" y="175" width="170" height="25" as="geometry" />
        </mxCell>
        <mxCell id="v3uT7TUWIVRwBluRIR1n-20" value="SAML response" style="edgeLabel;html=1;align=center;verticalAlign=middle;resizable=0;points=[];" vertex="1" connectable="0" parent="v3uT7TUWIVRwBluRIR1n-21">
          <mxGeometry x="513" y="174.99523809523816" as="geometry">
            <mxPoint x="-426" y="-23" as="offset" />
          </mxGeometry>
        </mxCell>
      </root>
    </mxGraphModel>
  </diagram>
</mxfile>
